<svg xmlns="http://www.w3.org/2000/svg" viewBox="0 0 1216.36 357.42"><defs><style>.cls-1{isolation:isolate;}.cls-2,.cls-4{fill:none;stroke-miterlimit:10;}.cls-2{stroke:#403b3d;stroke-width:4.89px;}.cls-3{fill:#faf5e7;}.cls-4{stroke:#9d8669;stroke-linecap:round;stroke-width:4.39px;}.cls-5{fill:#403b3d;}.cls-6{fill:#fff;}.cls-7{fill:#d1bda5;}.cls-8{fill:#9d8669;opacity:0.23;mix-blend-mode:multiply;}</style></defs><g class="cls-1"><g id="Layer_2" data-name="Layer 2"><g id="OBJECTS"><rect class="cls-2" x="46.56" y="76.47" width="111.5" height="111.5" transform="translate(-63.53 111.07) rotate(-45)"/><rect class="cls-3" x="36.09" y="72.28" width="41.49" height="41.49" transform="translate(-49.13 67.44) rotate(-45)"/><rect class="cls-4" x="1045.92" y="57.94" width="115.34" height="115.34" transform="translate(404.98 -746.49) rotate(45)"/><rect class="cls-5" x="550.51" y="23.89" width="115.34" height="115.34" transform="translate(235.8 -406.16) rotate(45)"/><rect class="cls-5" x="396.29" y="289.63" width="49.86" height="49.86" transform="translate(345.8 -205.71) rotate(45)"/><rect class="cls-5" x="316.97" y="132.85" width="39.06" height="39.06" transform="translate(206.31 -193.31) rotate(45)"/><rect class="cls-6" x="1016.43" y="28.45" width="49.86" height="49.86" transform="translate(342.76 -720.72) rotate(45)"/><rect class="cls-7" x="605.99" y="209.74" width="49.86" height="49.86" transform="translate(350.73 -377.39) rotate(45)"/><path class="cls-8" d="M970.42,168.25V135.91h-7.18v32.34H912.68V319.06h67.56V168.25ZM938.8,275.32h-18v-18h18Zm0-65.39h-18V192h18Zm28.75,33.73h-18v-18h18Z"/><path class="cls-8" d="M254,168.25V135.91h-7.19v32.34H196.22V319.06h67.56V168.25ZM222.34,275.32h-18v-18h18Zm0-65.39h-18V192h18Zm28.75,33.73h-18v-18h18Z"/><path class="cls-8" d="M147.74,229.06,137.15,209v20.07h-5.89V316h57V229.06Zm4.87,27.81H140.18V244.43h12.43Zm25.5,36.36H165.68V280.79h12.43Zm0-23.48H165.68V257.32h12.43Z"/><path class="cls-8" d="M1012,229.06,1001.41,209v20.07h-5.89V316h57V229.06Zm4.88,27.81h-12.44V244.43h12.44Zm25.5,36.36h-12.44V280.79h12.44Zm0-23.48h-12.44V257.32h12.44Z"/><path class="cls-8" d="M22.09,192.43V180H9.67v12.43H0V316H46.94V192.43Zm-2,58.68H7.63V238.67H20.06Zm0-37.28H7.63V201.39H20.06Zm18.64,78H26.27V279.4H38.7Zm0-25.55H26.27V253.86H38.7Zm0-37.28H26.27V216.58H38.7Z"/><path class="cls-8" d="M778.73,233.85V221.42H766.31v12.43h-9.67V357.42h47V233.85Zm-2,58.68H764.27V280.09H776.7Zm0-37.28H764.27V242.82H776.7Zm18.64,78H782.91V320.83h12.43Zm0-25.54H782.91V295.28h12.43Zm0-37.28H782.91V258h12.43Z"/><path class="cls-8" d="M1202,245.49V228h-8.8v-14.5h-17.09V228h-7.25v17.46h-93.31V316h140.85V245.49Zm-98.37,28.29h-12.44V261.34h12.44Zm28,16.56h-12.43V277.91h12.43Zm29-17.79h-12.44V260.12h12.44Zm34.17,0h-12.44V260.12h12.44Z"/></g></g></g></svg>